<svg viewBox="0 0 800 600" xmlns="http://www.w3.org/2000/svg">
  <!-- Fond -->
  <rect width="800" height="600" fill="#f8f9fa" rx="10" ry="10"/>

  <!-- Titre -->
  <text x="400" y="40" font-family="Arial" font-size="22" font-weight="bold" text-anchor="middle" fill="#1a1a1a">
    Interfaces CORAIL pour Différents Niveaux d'Utilisateurs
  </text>

  <!-- Séparateurs verticaux -->
  <line x1="266" y1="70" x2="266" y2="570" stroke="#ddd" stroke-width="2"/>
  <line x1="533" y1="70" x2="533" y2="570" stroke="#ddd" stroke-width="2"/>

  <!-- Titres des sections -->
  <text x="133" y="85" font-family="Arial" font-size="18" font-weight="bold" text-anchor="middle" fill="#2c3e50">
    Interface Débutant
  </text>
  <text x="399" y="85" font-family="Arial" font-size="18" font-weight="bold" text-anchor="middle" fill="#2c3e50">
    Interface Intermédiaire
  </text>
  <text x="666" y="85" font-family="Arial" font-size="18" font-weight="bold" text-anchor="middle" fill="#2c3e50">
    Interface Avancée
  </text>

  <!-- Sous-titres des sections -->
  <text x="133" y="105" font-family="Arial" font-size="12" font-style="italic" text-anchor="middle" fill="#666">
    Web simple et intuitif
  </text>
  <text x="399" y="105" font-family="Arial" font-size="12" font-style="italic" text-anchor="middle" fill="#666">
    Nostr & Outils collaboratifs
  </text>
  <text x="666" y="105" font-family="Arial" font-size="12" font-style="italic" text-anchor="middle" fill="#666">
    IPFS & Développement décentralisé
  </text>

  <!-- Interface débutant - Navigateur Web Simple -->
  <rect x="35" y="125" width="196" height="140" rx="5" ry="5" fill="#fff" stroke="#ccc" stroke-width="1"/>
  <rect x="35" y="125" width="196" height="25" rx="5" ry="5" fill="#f1f1f1" stroke="#ccc" stroke-width="1"/>
  <circle cx="50" cy="137" r="5" fill="#ff6347"/>
  <circle cx="65" cy="137" r="5" fill="#ffd700"/>
  <circle cx="80" cy="137" r="5" fill="#32cd32"/>
  <rect x="100" y="130" width="120" height="15" rx="3" ry="3" fill="#fff" stroke="#ccc" stroke-width="1"/>
  <text x="110" y="142" font-family="Arial" font-size="10" fill="#666">corail.synergia.org</text>

  <!-- Contenu interface débutant -->
  <rect x="45" y="160" width="176" height="25" rx="3" ry="3" fill="#e3f2fd"/>
  <text x="133" y="177" font-family="Arial" font-size="12" font-weight="bold" text-anchor="middle" fill="#1565c0">
    Bienvenue sur CORAIL
  </text>

  <rect x="45" y="195" width="85" height="20" rx="3" ry="3" fill="#bbdefb"/>
  <text x="88" y="209" font-family="Arial" font-size="10" text-anchor="middle" fill="#1565c0">
    Explorer
  </text>

  <rect x="136" y="195" width="85" height="20" rx="3" ry="3" fill="#bbdefb"/>
  <text x="178" y="209" font-family="Arial" font-size="10" text-anchor="middle" fill="#1565c0">
    Contribuer
  </text>

  <rect x="45" y="225" width="176" height="30" rx="3" ry="3" fill="#e8f5e9" stroke="#c8e6c9" stroke-width="1"/>
  <text x="133" y="245" font-family="Arial" font-size="10" text-anchor="middle" fill="#2e7d32">
    Aucune connaissance technique requise
  </text>

  <!-- Interface débutant - Documentation illustrée -->
  <rect x="35" y="280" width="196" height="250" rx="5" ry="5" fill="#fff" stroke="#ccc" stroke-width="1"/>

  <text x="133" y="300" font-family="Arial" font-size="14" font-weight="bold" text-anchor="middle" fill="#2c3e50">
    Documentation QAAF
  </text>

  <rect x="55" y="315" width="156" height="80" rx="3" ry="3" fill="#f5f5f5"/>
  <rect x="70" y="330" width="126" height="50" rx="3" ry="3" fill="#e0f7fa"/>
  <circle cx="133" cy="355" r="20" fill="#80deea"/>
  <line x1="120" y1="355" x2="146" y2="355" stroke="#006064" stroke-width="2"/>
  <line x1="133" y1="342" x2="133" y2="368" stroke="#006064" stroke-width="2"/>

  <text x="65" y="415" font-family="Arial" font-size="10" fill="#666">
    L'optimisation des actifs par QAAF fonctionne
  </text>
  <text x="65" y="430" font-family="Arial" font-size="10" fill="#666">
    comme un écosystème naturel où chaque actif
  </text>
  <text x="65" y="445" font-family="Arial" font-size="10" fill="#666">
    trouve sa niche optimale dans le portefeuille.
  </text>

  <rect x="55" y="465" width="75" height="25" rx="12" ry="12" fill="#e3f2fd" stroke="#bbdefb" stroke-width="1"/>
  <text x="93" y="481" font-family="Arial" font-size="10" text-anchor="middle" fill="#1565c0">
    Commenter
  </text>

  <rect x="135" y="465" width="75" height="25" rx="12" ry="12" fill="#e3f2fd" stroke="#bbdefb" stroke-width="1"/>
  <text x="173" y="481" font-family="Arial" font-size="10" text-anchor="middle" fill="#1565c0">
    Partager
  </text>

  <!-- Interface intermédiaire - Nostr -->
  <rect x="301" y="125" width="196" height="140" rx="5" ry="5" fill="#fff" stroke="#ccc" stroke-width="1"/>
  <rect x="301" y="125" width="196" height="25" rx="5" ry="5" fill="#f8f4ff" stroke="#ccc" stroke-width="1"/>
  <text x="399" y="142" font-family="Arial" font-size="12" font-weight="bold" text-anchor="middle" fill="#6200ea">
    CORAIL via Nostr
  </text>

  <rect x="311" y="160" width="176" height="25" rx="3" ry="3" fill="#f3e5f5"/>
  <text x="325" y="177" font-family="Arial" font-size="10" fill="#4a148c">
    npub1x72c...wme03
  </text>

  <line x1="311" y1="195" x2="487" y2="195" stroke="#e1bee7" stroke-width="1"/>

  <text x="325" y="215" font-family="Arial" font-size="10" fill="#4a148c">
    Identité décentralisée
  </text>

  <rect x="325" y="225" width="150" height="30" rx="3" ry="3" fill="#f3e5f5" stroke="#e1bee7" stroke-width="1"/>
  <text x="400" y="245" font-family="Arial" font-size="10" text-anchor="middle" fill="#4a148c">
    Signature ARIANE: Niveau 2
  </text>

  <!-- Interface intermédiaire - HackMD Collaboratif -->
  <rect x="301" y="280" width="196" height="250" rx="5" ry="5" fill="#fff" stroke="#ccc" stroke-width="1"/>

  <rect x="301" y="280" width="196" height="25" rx="5" ry="5" fill="#fffde7" stroke="#ccc" stroke-width="1"/>
  <text x="399" y="297" font-family="Arial" font-size="12" font-weight="bold" text-anchor="middle" fill="#f57f17">
    HackMD: Edition Collaborative
  </text>

  <line x1="321" y1="315" x2="321" y2="510" stroke="#f0f0f0" stroke-width="1"/>

  <text x="335" y="330" font-family="Arial" font-size="10" font-weight="bold" fill="#333">
    # Module CHRONOS
  </text>

  <text x="335" y="350" font-family="Arial" font-size="9" fill="#666">
    Le module CHRONOS permet la détection
  </text>
  <text x="335" y="365" font-family="Arial" font-size="9" fill="#666">
    automatique des régimes de marché et
  </text>
  <text x="335" y="380" font-family="Arial" font-size="9" fill="#666">
    l'adaptation contextuelle des stratégies.
  </text>

  <text x="335" y="405" font-family="Arial" font-size="10" font-weight="bold" fill="#333">
    ## Principes biomimétiques
  </text>

  <text x="335" y="425" font-family="Arial" font-size="9" fill="#666">
    - Adaptation aux cycles naturels
  </text>
  <text x="335" y="440" font-family="Arial" font-size="9" fill="#666">
    - Détection des signaux faibles
  </text>
  <text x="335" y="455" font-family="Arial" font-size="9" fill="#666">
    - Résonance avec l'environnement
  </text>

  <rect x="335" y="475" width="130" height="20" rx="3" ry="3" fill="#fff9c4" stroke="#fff176" stroke-width="1"/>
  <text x="400" y="489" font-family="Arial" font-size="9" text-anchor="middle" fill="#f57f17">
    3 collaborateurs en ligne
  </text>

  <!-- Interface avancée - Terminal IPFS -->
  <rect x="568" y="125" width="196" height="140" rx="5" ry="5" fill="#000" stroke="#333" stroke-width="1"/>
  <text x="580" y="145" font-family="monospace" font-size="10" fill="#0f0">
    $ ipfs add -r corail/chronos
  </text>
  <text x="580" y="165" font-family="monospace" font-size="10" fill="#fff">
    added QmT5NvUtoM5n...
  </text>
  <text x="580" y="180" font-family="monospace" font-size="10" fill="#fff">
    added QmUNLLsPACCz...
  </text>
  <text x="580" y="195" font-family="monospace" font-size="10" fill="#fff">
    added QmYwAPJzv5C...
  </text>
  <text x="580" y="215" font-family="monospace" font-size="10" fill="#0f0">
    $ ariane verify --hash QmYwAPJzv5C...
  </text>
  <text x="580" y="235" font-family="monospace" font-size="10" fill="#fff">
    Signature: Level 3 (Strong)
  </text>
  <text x="580" y="250" font-family="monospace" font-size="10" fill="#fff">
    CGVS Alignment: 87%
  </text>

  <!-- Interface avancée - IDE avec Holochain -->
  <rect x="568" y="280" width="196" height="250" rx="5" ry="5" fill="#263238" stroke="#455a64" stroke-width="1"/>

  <rect x="568" y="280" width="196" height="25" rx="0" ry="0" fill="#37474f"/>
  <text x="580" y="297" font-family="monospace" font-size="10" fill="#eceff1">
    corail_cell.rs
  </text>

  <line x1="595" y1="315" x2="595" y2="520" stroke="#455a64" stroke-width="1"/>

  <text x="575" y="330" font-family="monospace" font-size="10" fill="#8bc34a">
    1
  </text>
  <text x="575" y="345" font-family="monospace" font-size="10" fill="#8bc34a">
    2
  </text>
  <text x="575" y="360" font-family="monospace" font-size="10" fill="#8bc34a">
    3
  </text>
  <text x="575" y="375" font-family="monospace" font-size="10" fill="#8bc34a">
    4
  </text>
  <text x="575" y="390" font-family="monospace" font-size="10" fill="#8bc34a">
    5
  </text>
  <text x="575" y="405" font-family="monospace" font-size="10" fill="#8bc34a">
    6
  </text>
  <text x="575" y="420" font-family="monospace" font-size="10" fill="#8bc34a">
    7
  </text>
  <text x="575" y="435" font-family="monospace" font-size="10" fill="#8bc34a">
    8
  </text>
  <text x="575" y="450" font-family="monospace" font-size="10" fill="#8bc34a">
    9
  </text>
  <text x="575" y="465" font-family="monospace" font-size="10" fill="#8bc34a">
    10
  </text>

  <text x="605" y="330" font-family="monospace" font-size="9" fill="#4dd0e1">
    pub struct PolypCell {
  </text>
  <text x="605" y="345" font-family="monospace" font-size="9" fill="#eceff1">
      id: EntryHash,
  </text>
  <text x="605" y="360" font-family="monospace" font-size="9" fill="#eceff1">
      content: String,
  </text>
  <text x="605" y="375" font-family="monospace" font-size="9" fill="#eceff1">
      status: LifeCycleStage,
  </text>
  <text x="605" y="390" font-family="monospace" font-size="9" fill="#eceff1">
      energy_signature: [u8; 32],
  </text>
  <text x="605" y="405" font-family="monospace" font-size="9" fill="#eceff1">
      connections: Vec&lt;EntryHash&gt;,
  </text>
  <text x="605" y="420" font-family="monospace" font-size="9" fill="#eceff1">
      timestamp: Timestamp,
  </text>
  <text x="605" y="435" font-family="monospace" font-size="9" fill="#eceff1">
      metadata: BTreeMap&lt;String, String&gt;,
  </text>
  <text x="605" y="450" font-family="monospace" font-size="9" fill="#4dd0e1">
    }
  </text>
  <text x="605" y="465" font-family="monospace" font-size="9" fill="#ff5722">
    // Cellule CORAIL sur Holochain
  </text>

  <!-- Flèches de progression -->
  <path d="M245 220 C255 220, 265 220, 275 220" fill="none" stroke="#2c3e50" stroke-width="2" marker-end="url(#arrowhead)" opacity="0.5"/>
  <path d="M512 220 C522 220, 532 220, 542 220" fill="none" stroke="#2c3e50" stroke-width="2" marker-end="url(#arrowhead)" opacity="0.5"/>

  <!-- Marqueur flèche -->
  <defs>
    <marker id="arrowhead" markerWidth="10" markerHeight="7" refX="9" refY="3.5" orient="auto">
      <polygon points="0 0, 10 3.5, 0 7" fill="#2c3e50"/>
    </marker>
  </defs>

  <!-- Signature SYNERGIA -->
  <text x="700" y="580" font-family="Arial" font-size="10" fill="#888">SYNERGIA © 2025</text>
</svg>